<?xml version="1.0" encoding="UTF-8"?>
<svg version="1.1" xmlns="http://www.w3.org/2000/svg" width="200" height="200">
<path d="M0 0 C66 0 132 0 200 0 C200 66 200 132 200 200 C134 200 68 200 0 200 C0 134 0 68 0 0 Z " fill="#3B00F4" transform="translate(0,0)"/>
<path d="M0 0 C66 0 132 0 200 0 C200 66 200 132 200 200 C134 200 68 200 0 200 C0 134 0 68 0 0 Z M8 8 C8 68.72 8 129.44 8 192 C68.72 192 129.44 192 192 192 C192 131.28 192 70.56 192 8 C131.28 8 70.56 8 8 8 Z " fill="#F6F2FE" transform="translate(0,0)"/>
<path d="M0 0 C0.33 0 0.66 0 1 0 C1.34675781 1.22589844 1.69351563 2.45179687 2.05078125 3.71484375 C4.19837563 10.1576269 7.7042656 15.76642591 11.1875 21.5625 C12.16879883 23.21862305 12.16879883 23.21862305 13.16992188 24.90820312 C14.77235439 27.61011488 16.38247622 30.30710531 18 33 C17.01 33.495 17.01 33.495 16 34 C16.495 36.475 16.495 36.475 17 39 C16.67 39 16.34 39 16 39 C15.34 41.64 14.68 44.28 14 47 C11.69 47 9.38 47 7 47 C7 46.67 7 46.34 7 46 C9.475 45.505 9.475 45.505 12 45 C12.33 43.02 12.66 41.04 13 39 C6.88252337 34.84462901 0.68126927 30.88395284 -5.6875 27.125 C-6.50283203 26.62742187 -7.31816406 26.12984375 -8.15820312 25.6171875 C-12.58572979 23.01149678 -15.69120944 21.29673534 -21 22 C-21.99 24.475 -21.99 24.475 -23 27 C-25 23.25 -25 23.25 -25 21 C-24.01 21 -23.02 21 -22 21 C-22 20.34 -22 19.68 -22 19 C-15.375 18.875 -15.375 18.875 -12 20 C-12 19.34 -12 18.68 -12 18 C-9.13275314 18.57344937 -8.1385485 18.8614515 -6 21 C-5.90847656 20.39671875 -5.81695312 19.7934375 -5.72265625 19.171875 C-4.82279508 16.46742737 -3.79297981 15.7917686 -1.4375 14.25 C-0.47650391 13.60804687 -0.47650391 13.60804687 0.50390625 12.953125 C0.99761719 12.63859375 1.49132812 12.3240625 2 12 C1.67 11.13375 1.34 10.2675 1 9.375 C0.01268659 6.04281725 -0.16420974 3.44840462 0 0 Z " fill="#3E06F0" transform="translate(62,54)"/>
<path d="M0 0 C2.9375 0.375 2.9375 0.375 4.9375 2.375 C5.52854046 7.38033212 4.27431133 10.2596346 1.76171875 14.54296875 C1.09849609 15.68314453 0.43527344 16.82332031 -0.24804688 17.99804688 C-0.59730225 18.58320068 -0.94655762 19.16835449 -1.30639648 19.77124023 C-2.37375524 21.56041346 -3.42168761 23.35986669 -4.46679688 25.16210938 C-10.33902819 35.1647604 -10.33902819 35.1647604 -13.0625 37.375 C-15.97593893 37.81201584 -17.43436206 37.77282069 -19.9375 36.1875 C-21.0625 34.375 -21.0625 34.375 -20.82373047 32.12524414 C-19.94371803 28.94585348 -18.62990588 26.43154475 -17.0078125 23.55859375 C-16.39292969 22.46482422 -15.77804688 21.37105469 -15.14453125 20.24414062 C-14.49871094 19.11169922 -13.85289063 17.97925781 -13.1875 16.8125 C-12.54941406 15.67619141 -11.91132812 14.53988281 -11.25390625 13.36914062 C-3.97271896 0.48645538 -3.97271896 0.48645538 0 0 Z " fill="#F7F2FD" transform="translate(132.0625,50.625)"/>
<path d="M0 0 C3.72234668 0.62039111 4.4372132 2.43254723 6.625 5.4375 C9.16415253 9.34353208 11.50913504 13.36216604 13.875 17.375 C14.5246875 18.44685547 15.174375 19.51871094 15.84375 20.62304688 C16.45734375 21.66396484 17.0709375 22.70488281 17.703125 23.77734375 C18.26418945 24.71956787 18.82525391 25.66179199 19.40332031 26.63256836 C20.79671198 29.83174439 21.00844998 31.98310263 20.625 35.4375 C18.625 37.4375 18.625 37.4375 15.73828125 37.90625 C12.625 37.4375 12.625 37.4375 10.60546875 35.15625 C10.01378906 34.0940625 9.42210938 33.031875 8.8125 31.9375 C8.48701172 31.36378662 8.16152344 30.79007324 7.82617188 30.19897461 C7.12168643 28.95264132 6.42657016 27.70097672 5.73974609 26.44482422 C4.57285365 24.34360002 3.35025084 22.28332545 2.11328125 20.22265625 C1.28282772 18.81570953 0.45338204 17.40816737 -0.375 16 C-0.77307861 15.33871094 -1.17115723 14.67742187 -1.58129883 13.99609375 C-3.85966535 10.02164904 -5.04129071 7.15011868 -4.375 2.4375 C-2.375 0.4375 -2.375 0.4375 0 0 Z " fill="#F8F3FD" transform="translate(67.375,50.5625)"/>
<path d="M0 0 C2 2 2 2 2.4375 4.375 C1.81710889 8.09734668 0.00495277 8.8122132 -3 11 C-6.90603208 13.53915253 -10.92466604 15.88413504 -14.9375 18.25 C-16.00935547 18.8996875 -17.08121094 19.549375 -18.18554688 20.21875 C-19.74692383 21.13914063 -19.74692383 21.13914063 -21.33984375 22.078125 C-22.28206787 22.63918945 -23.22429199 23.20025391 -24.19506836 23.77832031 C-27.39424439 25.17171198 -29.54560263 25.38344998 -33 25 C-35 23 -35 23 -35.46875 20.11328125 C-35 17 -35 17 -32.71875 14.98046875 C-31.6565625 14.38878906 -30.594375 13.79710937 -29.5 13.1875 C-28.92628662 12.86201172 -28.35257324 12.53652344 -27.76147461 12.20117188 C-26.51514132 11.49668643 -25.26347672 10.80157016 -24.00732422 10.11474609 C-21.90610002 8.94785365 -19.84582545 7.72525084 -17.78515625 6.48828125 C-16.37820953 5.65782772 -14.97066737 4.82838204 -13.5625 4 C-12.90121094 3.60192139 -12.23992188 3.20384277 -11.55859375 2.79370117 C-7.58414904 0.51533465 -4.71261868 -0.66629071 0 0 Z " fill="#F8F3FD" transform="translate(74,124)"/>
<path d="M0 0 C5.33497984 0.72158264 9.32019061 3.37395907 13.8984375 6.1015625 C14.8059375 6.62363281 15.7134375 7.14570313 16.6484375 7.68359375 C20.9150688 10.17348666 25.11587689 12.76381939 29.1875 15.5625 C29.83412598 16.00384277 30.48075195 16.44518555 31.14697266 16.89990234 C32.5234375 18.4765625 32.5234375 18.4765625 32.85693359 21.03369141 C32.5234375 23.4765625 32.5234375 23.4765625 30.5234375 25.4765625 C25.65620756 26.02383477 22.80403289 24.92257139 18.609375 22.51953125 C17.51882812 21.90142578 16.42828125 21.28332031 15.3046875 20.64648438 C14.180625 19.99228516 13.0565625 19.33808594 11.8984375 18.6640625 C10.20074219 17.70016602 10.20074219 17.70016602 8.46875 16.71679688 C-1.81394685 10.8383594 -1.81394685 10.8383594 -4.4765625 8.4765625 C-4.8515625 5.4140625 -4.8515625 5.4140625 -4.4765625 2.4765625 C-2.4765625 0.4765625 -2.4765625 0.4765625 0 0 Z " fill="#F8F2FD" transform="translate(128.4765625,123.5234375)"/>
<path d="M0 0 C2 2 2 2 2.4375 4.375 C1.81710889 8.09734668 0.00495277 8.8122132 -3 11 C-6.90603208 13.53915253 -10.92466604 15.88413504 -14.9375 18.25 C-16.00935547 18.8996875 -17.08121094 19.549375 -18.18554688 20.21875 C-19.74692383 21.13914062 -19.74692383 21.13914062 -21.33984375 22.078125 C-22.28206787 22.63918945 -23.22429199 23.20025391 -24.19506836 23.77832031 C-27.39424439 25.17171198 -29.54560263 25.38344998 -33 25 C-35 23 -35 23 -35.46875 20.11328125 C-35 17 -35 17 -32.71875 14.98046875 C-31.6565625 14.38878906 -30.594375 13.79710938 -29.5 13.1875 C-28.92628662 12.86201172 -28.35257324 12.53652344 -27.76147461 12.20117188 C-26.51514132 11.49668643 -25.26347672 10.80157016 -24.00732422 10.11474609 C-21.90610002 8.94785365 -19.84582545 7.72525084 -17.78515625 6.48828125 C-16.37820953 5.65782772 -14.97066737 4.82838204 -13.5625 4 C-12.90121094 3.60192139 -12.23992187 3.20384277 -11.55859375 2.79370117 C-7.58414904 0.51533465 -4.71261868 -0.66629071 0 0 Z " fill="#FAF6FD" transform="translate(159,75)"/>
<path d="M0 0 C3.86815053 0.38377383 6.0829594 1.53680171 9.4284668 3.49926758 C10.56864258 4.16249023 11.70881836 4.82571289 12.88354492 5.5090332 C13.46869873 5.85828857 14.05385254 6.20754395 14.65673828 6.56738281 C16.4459115 7.63474157 18.24536474 8.68267394 20.04760742 9.7277832 C30.28754678 15.73931879 30.28754678 15.73931879 32.26049805 18.32348633 C31.82571544 23.75826894 31.82571544 23.75826894 30.26049805 25.32348633 C25.37515757 25.77215812 22.5630246 24.78205917 18.34643555 22.36645508 C17.25588867 21.74834961 16.1653418 21.13024414 15.04174805 20.4934082 C13.91768555 19.83920898 12.79362305 19.18500977 11.63549805 18.51098633 C9.93780273 17.54708984 9.93780273 17.54708984 8.20581055 16.5637207 C-2.0768863 10.68528323 -2.0768863 10.68528323 -4.73950195 8.32348633 C-5.11450195 5.26098633 -5.11450195 5.26098633 -4.73950195 2.32348633 C-2.73950195 0.32348633 -2.73950195 0.32348633 0 0 Z " fill="#F8F3FD" transform="translate(43.739501953125,74.676513671875)"/>
<path d="M0 0 C2.4375 0.75 2.4375 0.75 4.4375 2.75 C4.64952418 5.4395974 4.74147614 8.02363723 4.73828125 10.71484375 C4.74256638 11.50395645 4.7468515 12.29306915 4.75126648 13.10609436 C4.75701363 14.77636759 4.75750721 16.44666586 4.75317383 18.11694336 C4.75001655 20.67409972 4.77345751 23.2300964 4.79882812 25.78710938 C4.80110134 27.4088527 4.80180451 29.03059915 4.80078125 30.65234375 C4.809991 31.41804184 4.81920074 32.18373993 4.82868958 32.97264099 C4.78287338 38.22498418 4.78287338 38.22498418 3.11010742 40.76782227 C1.4375 41.75 1.4375 41.75 -1.6875 41.5625 C-2.63625 41.294375 -3.585 41.02625 -4.5625 40.75 C-6.16553688 37.54392624 -5.74673959 34.05396138 -5.765625 30.53125 C-5.77132507 29.71756958 -5.77702515 28.90388916 -5.78289795 28.06555176 C-5.79234882 26.34400738 -5.79888228 24.62244491 -5.80273438 22.90087891 C-5.8124616 20.2604244 -5.84349199 17.62074119 -5.875 14.98046875 C-5.88152785 13.30990047 -5.88677918 11.63932661 -5.890625 9.96875 C-5.9029718 9.17601685 -5.9153186 8.38328369 -5.92803955 7.56652832 C-5.91894531 5.34179688 -5.91894531 5.34179688 -5.5625 1.75 C-2.5625 -0.25 -2.5625 -0.25 0 0 Z " fill="#FBF5FE" transform="translate(100.5625,42.25)"/>
<path d="M0 0 C1.22264305 -0.0049926 1.22264305 -0.0049926 2.46998596 -0.01008606 C4.19751418 -0.01515867 5.92505223 -0.01749428 7.65258789 -0.01733398 C10.3017587 -0.01951917 12.95051241 -0.03766746 15.59960938 -0.05664062 C17.27473815 -0.05957469 18.94986892 -0.0615594 20.625 -0.0625 C21.42087021 -0.06968552 22.21674042 -0.07687103 23.03672791 -0.08427429 C28.65008398 -0.06085352 28.65008398 -0.06085352 30.87890625 2.16796875 C31.12890625 5.16796875 31.12890625 5.16796875 30.87890625 8.16796875 C28.30835419 10.73852081 26.56803125 10.42599605 23.06237793 10.47151184 C21.8732782 10.47014473 21.8732782 10.47014473 20.66015625 10.46875 C19.84647583 10.47303513 19.03279541 10.47732025 18.19445801 10.48173523 C16.47290987 10.48748211 14.75133744 10.48797615 13.02978516 10.48364258 C10.38922945 10.48048111 7.74979218 10.50394139 5.109375 10.52929688 C3.4388035 10.53156961 1.76822898 10.53227348 0.09765625 10.53125 C-0.6950769 10.54045975 -1.48781006 10.54966949 -2.30456543 10.55915833 C-4.52929688 10.5402832 -4.52929688 10.5402832 -8.12109375 10.16796875 C-10.12109375 7.16796875 -10.12109375 7.16796875 -9.80859375 4.04296875 C-8.49793895 -1.43795132 -4.87601837 0.00680058 0 0 Z " fill="#FDFBFD" transform="translate(40.12109375,106.83203125)"/>
<path d="M0 0 C0.79148438 -0.0033284 1.58296875 -0.0066568 2.3984375 -0.01008606 C4.07291075 -0.01515165 5.7473941 -0.0174945 7.421875 -0.01733398 C9.98975135 -0.01952252 12.55719959 -0.03768734 15.125 -0.05664062 C16.74999853 -0.05957416 18.3749991 -0.06155922 20 -0.0625 C21.15628906 -0.07327827 21.15628906 -0.07327827 22.3359375 -0.08427429 C27.7711728 -0.06085845 27.7711728 -0.06085845 30 2.16796875 C30.25 5.16796875 30.25 5.16796875 30 8.16796875 C27.46305597 10.70491278 25.82368559 10.42509158 22.36158752 10.47151184 C21.5938652 10.47060043 20.82614288 10.46968903 20.03515625 10.46875 C19.24604355 10.47303513 18.45693085 10.47732025 17.64390564 10.48173523 C15.97363241 10.48748238 14.30333414 10.48797596 12.63305664 10.48364258 C10.07590028 10.4804853 7.5199036 10.50392626 4.96289062 10.52929688 C3.3411473 10.53157009 1.71940085 10.53227326 0.09765625 10.53125 C-0.66804184 10.54045975 -1.43373993 10.54966949 -2.22264099 10.55915833 C-7.47498418 10.51334213 -7.47498418 10.51334213 -10.01782227 8.84057617 C-11 7.16796875 -11 7.16796875 -10.8125 4.04296875 C-10.544375 3.09421875 -10.27625 2.14546875 -10 1.16796875 C-6.84665706 -0.40870272 -3.46237759 0.00499834 0 0 Z " fill="#FDF7FD" transform="translate(139,106.83203125)"/>
<path d="M0 0 C3.5 0.375 3.5 0.375 6.5 2.375 C6.86254902 5.39592401 7.03733338 8.22042646 7.08203125 11.25 C7.1047258 12.13026855 7.12742035 13.01053711 7.15080261 13.91748047 C7.19543069 15.78011714 7.23277495 17.64294031 7.26342773 19.50585938 C7.31231264 22.36404548 7.3877776 25.2206303 7.46679688 28.078125 C7.50679418 29.88538227 7.5452574 31.69267427 7.58203125 33.5 C7.60481644 34.35835449 7.62760162 35.21670898 7.65107727 36.10107422 C7.67870127 38.19280666 7.59880653 40.28541991 7.5 42.375 C6.84 43.035 6.18 43.695 5.5 44.375 C5.5 45.365 5.5 46.355 5.5 47.375 C4.51 47.375 3.52 47.375 2.5 47.375 C2.5 46.715 2.5 46.055 2.5 45.375 C1.56027344 45.13716797 1.56027344 45.13716797 0.6015625 44.89453125 C-6.15694683 42.96505146 -6.15694683 42.96505146 -8.0625 39.6875 C-8.2790625 38.5428125 -8.2790625 38.5428125 -8.5 37.375 C-9.16 37.375 -9.82 37.375 -10.5 37.375 C-10.5 41.005 -10.5 44.635 -10.5 48.375 C-13.14 48.705 -15.78 49.035 -18.5 49.375 C-18.83 48.715 -19.16 48.055 -19.5 47.375 C-17.19 46.715 -14.88 46.055 -12.5 45.375 C-12.41995518 41.8530279 -12.45994298 38.75518531 -13.5 35.375 C-12.51 35.375 -11.52 35.375 -10.5 35.375 C-8.19129242 33.13140286 -7.54500212 31.71057418 -7.11523438 28.50585938 C-7.10814453 27.42111328 -7.10105469 26.33636719 -7.09375 25.21875 C-7.07183594 24.03152344 -7.04992187 22.84429687 -7.02734375 21.62109375 C-7.01832031 20.38488281 -7.00929688 19.14867187 -7 17.875 C-6.98213102 15.42694909 -6.95143012 12.97894919 -6.90625 10.53125 C-6.89916016 9.44650391 -6.89207031 8.36175781 -6.88476562 7.24414062 C-6.23211543 2.37742419 -4.92596756 0.52778224 0 0 Z M-4.5 3.375 C-4.80418469 6.1771341 -4.92000375 8.75446292 -4.8984375 11.55859375 C-4.90130768 12.3699025 -4.90417786 13.18121124 -4.90713501 14.0171051 C-4.90917813 15.73447364 -4.90363092 17.45186532 -4.89111328 19.16918945 C-4.87508309 21.79886992 -4.89094208 24.4270086 -4.91015625 27.05664062 C-4.90817345 28.72396173 -4.90432902 30.39128187 -4.8984375 32.05859375 C-4.90451019 32.84616562 -4.91058289 33.63373749 -4.9168396 34.44517517 C-4.88417244 38.66504766 -4.88417244 38.66504766 -3.13525391 42.40649414 C-1.44746126 43.61633675 -1.44746126 43.61633675 1.0625 43.1875 C3.64441272 42.52872967 3.64441272 42.52872967 5.5 40.375 C5.71202418 37.6854026 5.80397614 35.10136277 5.80078125 32.41015625 C5.80506638 31.62104355 5.8093515 30.83193085 5.81376648 30.01890564 C5.81951363 28.34863241 5.82000721 26.67833414 5.81567383 25.00805664 C5.81251655 22.45090028 5.83595751 19.8949036 5.86132812 17.33789062 C5.86360134 15.7161473 5.86430451 14.09440085 5.86328125 12.47265625 C5.872491 11.70695816 5.88170074 10.94126007 5.89118958 10.15235901 C5.86023564 6.04863399 5.86023564 6.04863399 4.22729492 2.36889648 C0.70858935 0.34421092 -1.33403121 1.26435414 -4.5 3.375 Z " fill="#4719D5" transform="translate(99.5,40.625)"/>
<path d="M0 0 C1 2 1 2 0.0625 5.125 C-0.288125 6.07375 -0.63875 7.0225 -1 8 C-1.66 8 -2.32 8 -3 8 C-3 8.66 -3 9.32 -3 10 C-2.34 10.33 -1.68 10.66 -1 11 C-1 15 -1 15 -3 18 C-2.67 18.33 -2.34 18.66 -2 19 C-1.236875 18.649375 -0.47375 18.29875 0.3125 17.9375 C3 17 3 17 6 18 C5.0615625 18.50789063 4.123125 19.01578125 3.15625 19.5390625 C1.93682767 20.23319521 0.71811365 20.92857328 -0.5 21.625 C-1.12003906 21.95628906 -1.74007812 22.28757812 -2.37890625 22.62890625 C-4.42137454 23.75516339 -4.42137454 23.75516339 -7 26 C-7.62647882 29.1440082 -7.62647882 29.1440082 -7 32 C-5.93325991 33.26470759 -5.93325991 33.26470759 -3.484375 33.37890625 C1.41441443 32.84619036 4.65630838 30.56013091 8.75 27.9375 C10.26120051 26.98125296 11.77663092 26.03164698 13.296875 25.08984375 C13.96041992 24.66566162 14.62396484 24.24147949 15.30761719 23.80444336 C15.86610352 23.53897705 16.42458984 23.27351074 17 23 C17.66 23.33 18.32 23.66 19 24 C17.8125 25.9375 17.8125 25.9375 16 28 C14.34608154 28.39171753 12.67654729 28.72057545 11 29 C9.31970006 29.97691857 7.65071396 30.97388051 6 32 C5.34 32 4.68 32 4 32 C4 32.66 4 33.32 4 34 C-0.11560195 35.99544337 -3.45049584 36.26247139 -8 36 C-10.2006239 33.7993761 -9.38847018 28.76509258 -9.5234375 25.78515625 C-9.68070312 24.86605469 -9.83796875 23.94695312 -10 23 C-10.99 22.34 -11.98 21.68 -13 21 C-12.64808594 20.48953125 -12.29617187 19.9790625 -11.93359375 19.453125 C-7.64706766 13.14085159 -3.78710483 6.62183122 0 0 Z " fill="#3F0BE6" transform="translate(132,66)"/>
<path d="M0 0 C5.09031755 -0.04936158 10.18049643 -0.08570105 15.27099609 -0.10986328 C17.00344265 -0.11993376 18.73587216 -0.13359089 20.46826172 -0.15087891 C22.95544639 -0.17508162 25.44240675 -0.18647239 27.9296875 -0.1953125 C28.70682098 -0.20563507 29.48395447 -0.21595764 30.28463745 -0.22659302 C32.19125493 -0.22699271 34.09731036 -0.1223214 36 0 C38 2 38 2 38.375 5.375 C38 9 38 9 36.50683594 11.20214844 C32.96388654 13.74307942 29.70718099 13.50034599 25.515625 13.390625 C24.70003113 13.38496521 23.88443726 13.37930542 23.04412842 13.37347412 C20.44548228 13.35112727 17.84822758 13.30093622 15.25 13.25 C13.48569703 13.22993271 11.7213724 13.21168234 9.95703125 13.1953125 C5.63748672 13.1512683 1.31897907 13.08225422 -3 13 C-2.67 12.34 -2.34 11.68 -2 11 C-0.91468994 10.97494385 0.17062012 10.9498877 1.28881836 10.92407227 C5.301316 10.83016245 9.31363382 10.72990233 13.32592773 10.62768555 C15.06514288 10.58427427 16.80440235 10.54260388 18.54370117 10.50268555 C21.03838488 10.44513232 23.5328441 10.3813958 26.02734375 10.31640625 C26.80963852 10.29969376 27.59193329 10.28298126 28.39793396 10.26576233 C31.99871781 10.49351269 31.99871781 10.49351269 35 9 C35.16666667 6 35.16666667 6 35 3 C33.02170928 1.02170928 29.17672973 1.74496068 26.46484375 1.68359375 C25.33496788 1.6524221 25.33496788 1.6524221 24.18226624 1.62062073 C21.7674401 1.55504575 19.35250202 1.49620379 16.9375 1.4375 C15.30402471 1.3943223 13.6705609 1.35070827 12.03710938 1.30664062 C8.02485536 1.19935638 4.01248836 1.09811179 0 1 C0 0.67 0 0.34 0 0 Z " fill="#4920C9" transform="translate(133,106)"/>
<path d="M0 0 C0.66 0 1.32 0 2 0 C2 0.66 2 1.32 2 2 C1.34 2 0.68 2 0 2 C0 2.66 0 3.32 0 4 C1.32 4 2.64 4 4 4 C4 4.66 4 5.32 4 6 C6.47266765 5.65555119 6.47266765 5.65555119 9 5 C9.33 4.34 9.66 3.68 10 3 C10.99 4.32 11.98 5.64 13 7 C12.34 7 11.68 7 11 7 C11.9977758 9.99332739 12.7522025 10.94766315 15 13 C11.20088527 11.95524345 8.23242993 10.56932263 5 8.375 C1.54397995 6.11963183 -0.79712476 5.38494509 -5 6 C-6.35618499 7.12534105 -6.35618499 7.12534105 -6.0625 10.0625 C-6.041875 11.031875 -6.02125 12.00125 -6 13 C-3.03 14.65 -0.06 16.3 3 18 C2.34 18.66 1.68 19.32 1 20 C-0.98 19.01 -2.96 18.02 -5 17 C-5.268125 17.61875 -5.53625 18.2375 -5.8125 18.875 C-7 21 -7 21 -10 23 C-10.99 23 -11.98 23 -13 23 C-13 21 -13 21 -11.1875 18.875 C-9 17 -9 17 -6 17 C-6 16.34 -6 15.68 -6 15 C-6.99 15 -7.98 15 -9 15 C-9.125 8.375 -9.125 8.375 -8 5 C-8.66 4.67 -9.32 4.34 -10 4 C-6.52176885 2.84058962 -4.54104422 3.29179116 -1 4 C-0.67 2.68 -0.34 1.36 0 0 Z " fill="#3F0CE3" transform="translate(131,119)"/>
<path d="M0 0 C1.02104551 0.97850195 2.0206121 1.97980427 3 3 C3.66 3.33 4.32 3.66 5 4 C5.71438696 11.0248051 5.71438696 11.0248051 3.76953125 13.6796875 C2.1875 15.0625 2.1875 15.0625 -1 17 C-1.99 16.67 -2.98 16.34 -4 16 C-3.4946875 15.69707031 -2.989375 15.39414063 -2.46875 15.08203125 C-0.50670682 13.81682484 1.28290791 12.58401745 3 11 C3.66977494 8.32680295 3.66977494 8.32680295 3 6 C1.91022302 4.69490707 1.91022302 4.69490707 -0.74536133 4.77124023 C-4.32663436 5.02295825 -6.04172823 5.79847281 -9.07421875 7.66015625 C-10.44610352 8.4790332 -10.44610352 8.4790332 -11.84570312 9.31445312 C-12.78349609 9.89130859 -13.72128906 10.46816406 -14.6875 11.0625 C-16.56083562 12.20837603 -18.43951818 13.34557063 -20.32421875 14.47265625 C-21.15010498 14.98062744 -21.97599121 15.48859863 -22.8269043 16.01196289 C-25 17 -25 17 -28 16 C-25.66785852 14.79371992 -23.50357861 13.8345262 -21 13 C-21 12.34 -21 11.68 -21 11 C-20.01 11 -19.02 11 -18 11 C-17.67 10.01 -17.34 9.02 -17 8 C-16.01 8.33 -15.02 8.66 -14 9 C-14 8.01 -14 7.02 -14 6 C-13.01 5.67 -12.02 5.34 -11 5 C-9.79117904 2.99983534 -9.79117904 2.99983534 -9 1 C-8.1028125 1.309375 -8.1028125 1.309375 -7.1875 1.625 C-4.0126065 2.16926746 -3.11147803 0 0 0 Z " fill="#4213DD" transform="translate(72,120)"/>
<path d="M0 0 C1.09658936 3.28976808 0.79953138 4.71303767 0 8 C1.32 8.66 2.64 9.32 4 10 C3.01 10.66 2.02 11.32 1 12 C0.66659529 15.04195427 0.66659529 15.04195427 1 18 C2.06674009 19.26470759 2.06674009 19.26470759 4.515625 19.37890625 C9.41441443 18.84619036 12.65630838 16.56013091 16.75 13.9375 C18.26120051 12.98125296 19.77663092 12.03164698 21.296875 11.08984375 C21.96041992 10.66566162 22.62396484 10.24147949 23.30761719 9.80444336 C23.86610352 9.53897705 24.42458984 9.27351074 25 9 C25.66 9.33 26.32 9.66 27 10 C25.8125 11.9375 25.8125 11.9375 24 14 C22.34608154 14.39171753 20.67654729 14.72057545 19 15 C17.31970006 15.97691857 15.65071396 16.97388051 14 18 C13.34 18 12.68 18 12 18 C12 18.66 12 19.32 12 20 C7.88439805 21.99544337 4.54950416 22.26247139 0 22 C-2.2006239 19.7993761 -1.38847018 14.76509258 -1.5234375 11.78515625 C-1.68070312 10.86605469 -1.83796875 9.94695312 -2 9 C-2.99 8.34 -3.98 7.68 -5 7 C-3.35 4.69 -1.7 2.38 0 0 Z " fill="#4413DB" transform="translate(124,80)"/>
<path d="M0 0 C1.125 1.625 1.125 1.625 2 4 C1.34 5.98 0.68 7.96 0 10 C7.59 10 15.18 10 23 10 C23 10.33 23 10.66 23 11 C11.78 11.33 0.56 11.66 -11 12 C-10.67 11.34 -10.34 10.68 -10 10 C-8.02 10 -6.04 10 -4 10 C-3.67 9.01 -3.34 8.02 -3 7 C-4.37168238 4.80961577 -4.37168238 4.80961577 -6 3 C-4.02 2.01 -2.04 1.02 0 0 Z " fill="#3904E3" transform="translate(142,95)"/>
<path d="M0 0 C1.32 0 2.64 0 4 0 C4 0.66 4 1.32 4 2 C4.99 2.33 5.98 2.66 7 3 C7.21691118 6.18136394 7.25066255 8.43969547 5.9375 11.375 C3.71929294 13.23543173 2.1502956 13.73673213 -0.75 13.60546875 C-5.9570665 12.20426162 -10.50453617 8.89363189 -15 6 C-14.67 5.34 -14.34 4.68 -14 4 C-13.27554688 4.433125 -12.55109375 4.86625 -11.8046875 5.3125 C-10.83789062 5.869375 -9.87109375 6.42625 -8.875 7 C-7.44800781 7.8353125 -7.44800781 7.8353125 -5.9921875 8.6875 C-2.7164023 10.12439794 -0.53788678 10.32815182 3 10 C4.24344314 8.95857126 4.24344314 8.95857126 4.3125 6.6875 C3.91080481 3.23292134 2.60100327 2.19459651 0 0 Z " fill="#4A1ED6" transform="translate(156,138)"/>
<path d="M0 0 C0.99 0.99 1.98 1.98 3 3 C2.01 3.495 2.01 3.495 1 4 C1.33 5.65 1.66 7.3 2 9 C1.67 9 1.34 9 1 9 C0.34 11.64 -0.32 14.28 -1 17 C-3.31 17 -5.62 17 -8 17 C-8 16.67 -8 16.34 -8 16 C-6.35 15.67 -4.7 15.34 -3 15 C-2.67 13.02 -2.34 11.04 -2 9 C-4.31 7.35 -6.62 5.7 -9 4 C-6.50907189 2.75453595 -5.58919267 3.2232422 -3 4 C-2.01 2.68 -1.02 1.36 0 0 Z " fill="#4718DF" transform="translate(77,84)"/>
<path d="M0 0 C0.93423645 3.01031744 1.04449911 3.86650268 0 7 C1.32 6.01 2.64 5.02 4 4 C4.66 4.66 5.32 5.32 6 6 C7.32 5.34 8.64 4.68 10 4 C7.125 8.875 7.125 8.875 6 10 C3.16640458 10.2982732 1.56214622 10.35602594 -0.875 8.8125 C-2 7 -2 7 -1.75 4.4375 C-1 2 -1 2 0 0 Z " fill="#F0E3FE" transform="translate(113,78)"/>
<path d="M0 0 C3.63 0 7.26 0 11 0 C11.66 1.32 12.32 2.64 13 4 C14.5412312 5.70921589 14.5412312 5.70921589 16 7 C11.28971963 5.1682243 11.28971963 5.1682243 9.0625 3.875 C6.31563094 2.70966161 3.94998931 2.86590958 1 3 C0.34 4.65 -0.32 6.3 -1 8 C-3 4.25 -3 4.25 -3 2 C-2.01 2 -1.02 2 0 2 C0 1.34 0 0.68 0 0 Z " fill="#4C21D7" transform="translate(40,73)"/>
<path d="M0 0 C0.33 0 0.66 0 1 0 C1 1.65 1 3.3 1 5 C1.66 5 2.32 5 3 5 C1.88243734 8.86848614 0.97126708 11.28922757 -2 14 C-2.25028811 12.41986783 -2.47440946 10.83557694 -2.6875 9.25 C-2.81511719 8.36828125 -2.94273438 7.4865625 -3.07421875 6.578125 C-2.98364977 3.4320447 -2.13306375 2.25420071 0 0 Z " fill="#3C03EE" transform="translate(117,60)"/>
<path d="M0 0 C0.99 0.66 1.98 1.32 3 2 C2 3 2 3 -1.51000977 3.11352539 C-3.07048422 3.11336626 -4.63096393 3.10767142 -6.19140625 3.09765625 C-7.01124496 3.0962413 -7.83108368 3.09482635 -8.67576599 3.09336853 C-11.30471382 3.08775289 -13.93357773 3.07519779 -16.5625 3.0625 C-18.34049357 3.05748701 -20.11848846 3.05292376 -21.89648438 3.04882812 C-26.26435545 3.03777839 -30.63216348 3.02050331 -35 3 C-35 2.67 -35 2.34 -35 2 C-33.46291382 1.96241577 -33.46291382 1.96241577 -31.89477539 1.92407227 C-28.10590324 1.83015516 -24.31722119 1.72989683 -20.52856445 1.62768555 C-18.88635697 1.58427703 -17.24410261 1.54260642 -15.60180664 1.50268555 C-13.24611255 1.4451256 -10.89065572 1.38139108 -8.53515625 1.31640625 C-7.79660904 1.29969376 -7.05806183 1.28298126 -6.2971344 1.26576233 C-2.85699373 1.46451987 -2.85699373 1.46451987 0 0 Z " fill="#F9E9FE" transform="translate(67,114)"/>
<path d="M0 0 C0.66 0.33 1.32 0.66 2 1 C0.8125 2.9375 0.8125 2.9375 -1 5 C-2.65391846 5.39171753 -4.32345271 5.72057545 -6 6 C-7.68029994 6.97691857 -9.34928604 7.97388051 -11 9 C-11.66 9 -12.32 9 -13 9 C-13 9.66 -13 10.32 -13 11 C-16.52948291 12.66670026 -18.28272326 13.13583456 -22 12 C-21.24976562 11.63648437 -20.49953125 11.27296875 -19.7265625 10.8984375 C-13.58948707 7.88400498 -7.70706781 4.7137865 -1.9609375 1.00390625 C-1.31382812 0.67261719 -0.66671875 0.34132813 0 0 Z " fill="#4214D7" transform="translate(149,89)"/>
<path d="M0 0 C0.33 0.66 0.66 1.32 1 2 C1.99 1.67 2.98 1.34 4 1 C4.66 1.33 5.32 1.66 6 2 C6 1.34 6 0.68 6 0 C7.32 0.33 8.64 0.66 10 1 C9.175 1.350625 8.35 1.70125 7.5 2.0625 C6.675 2.701875 5.85 3.34125 5 4 C4.58274322 7.62599422 4.58274322 7.62599422 5 11 C4.34 11 3.68 11 3 11 C2.731875 10.2575 2.46375 9.515 2.1875 8.75 C1.05770579 6.13363446 -0.20893202 4.19812889 -2 2 C-1.34 1.34 -0.68 0.68 0 0 Z " fill="#400EDF" transform="translate(35,137)"/>
<path d="M0 0 C2.475 0.495 2.475 0.495 5 1 C5 1.66 5 2.32 5 3 C5.99 3.33 6.98 3.66 8 4 C8 4.66 8 5.32 8 6 C7.34 6 6.68 6 6 6 C6.66 7.32 7.32 8.64 8 10 C7.34 10.66 6.68 11.32 6 12 C4.02 8.04 2.04 4.08 0 0 Z " fill="#3D0AE5" transform="translate(79,65)"/>
<path d="M0 0 C0.33 0.99 0.66 1.98 1 3 C1.66 3.33 2.32 3.66 3 4 C1 6 1 6 -1.8203125 6.1953125 C-2.91085938 6.17210937 -4.00140625 6.14890625 -5.125 6.125 C-6.22070312 6.10695312 -7.31640625 6.08890625 -8.4453125 6.0703125 C-9.28835937 6.04710937 -10.13140625 6.02390625 -11 6 C-11 5.01 -11 4.02 -11 3 C-10.113125 3.061875 -9.22625 3.12375 -8.3125 3.1875 C-4.65514983 2.98048018 -2.95222849 2.083926 0 0 Z " fill="#4416DC" transform="translate(52,145)"/>
<path d="M0 0 C0.66 0.33 1.32 0.66 2 1 C-1.75 4 -1.75 4 -4 4 C-4 4.66 -4 5.32 -4 6 C-4.99 6.495 -4.99 6.495 -6 7 C-6.33 7.99 -6.66 8.98 -7 10 C-6.34 10 -5.68 10 -5 10 C-5 10.66 -5 11.32 -5 12 C-3.35 12 -1.7 12 0 12 C0 12.33 0 12.66 0 13 C-2.875 13.125 -2.875 13.125 -6 13 C-8 11 -8 11 -8.625 8.1875 C-8 5 -8 5 -6.28125 3.4609375 C-4.21682211 2.1220513 -2.28321836 0.92153994 0 0 Z " fill="#F1E1FF" transform="translate(132,87)"/>
<path d="M0 0 C0 0.66 0 1.32 0 2 C-1.175625 2.2475 -2.35125 2.495 -3.5625 2.75 C-7.91076739 3.81582753 -11.17733859 5.70640315 -15 8 C-15.66 8 -16.32 8 -17 8 C-16 5 -16 5 -13.92578125 3.61328125 C-5.27282955 -0.69379336 -5.27282955 -0.69379336 0 0 Z " fill="#481CD6" transform="translate(159,73)"/>
<path d="M0 0 C2.9552728 2.61778794 4.75832727 5.67583335 6.75 9.0625 C7.38421875 10.12597656 8.0184375 11.18945312 8.671875 12.28515625 C9.11015625 13.18105469 9.5484375 14.07695313 10 15 C9.67 15.66 9.34 16.32 9 17 C8.67 16.01 8.34 15.02 8 14 C5.98491642 13.26676204 5.98491642 13.26676204 4 13 C3.896875 12.113125 3.79375 11.22625 3.6875 10.3125 C2.98527954 6.92907415 1.8403423 4.88053577 0 2 C0 1.34 0 0.68 0 0 Z " fill="#4316D5" transform="translate(67,67)"/>
<path d="M0 0 C2.475 0.99 2.475 0.99 5 2 C5.1875 4.875 5.1875 4.875 5 8 C4.01 8.66 3.02 9.32 2 10 C1.01 9.67 0.02 9.34 -1 9 C-0.34 8.34 0.32 7.68 1 7 C1.20872719 4.21697081 1.25640898 2.51281795 0 0 Z " fill="#3F0BD9" transform="translate(159,75)"/>
<path d="M0 0 C1.32 0 2.64 0 4 0 C4 0.66 4 1.32 4 2 C4.99 2.33 5.98 2.66 7 3 C7.36923077 8.41538462 7.36923077 8.41538462 5.5 11.375 C5.005 11.91125 4.51 12.4475 4 13 C3.34 12.67 2.68 12.34 2 12 C2.66 11.01 3.32 10.02 4 9 C4.50014953 6.54258463 4.50014953 6.54258463 4 4 C2.10415891 1.68622853 2.10415891 1.68622853 0 0 Z " fill="#3F0ED5" transform="translate(156,138)"/>
<path d="M0 0 C0.66 0 1.32 0 2 0 C2 0.66 2 1.32 2 2 C1.34 2 0.68 2 0 2 C0 2.99 0 3.98 0 5 C-0.94875 5.2475 -1.8975 5.495 -2.875 5.75 C-6.08693191 6.6857077 -6.08693191 6.6857077 -7.375 9.125 C-7.58125 9.74375 -7.7875 10.3625 -8 11 C-8 9.02 -8 7.04 -8 5 C-8.66 4.67 -9.32 4.34 -10 4 C-6.52176885 2.84058962 -4.54104422 3.29179116 -1 4 C-0.67 2.68 -0.34 1.36 0 0 Z " fill="#4E1EEA" transform="translate(131,119)"/>
<path d="M0 0 C0.66 0.33 1.32 0.66 2 1 C2.625 4.0625 2.625 4.0625 3 7 C-3.28571429 9.42857143 -3.28571429 9.42857143 -7 8 C-5.75 6.5 -5.75 6.5 -4 5 C-2.68 5 -1.36 5 0 5 C0 3.35 0 1.7 0 0 Z " fill="#420DE4" transform="translate(127,109)"/>
<path d="M0 0 C6.93 0 13.86 0 21 0 C21 0.33 21 0.66 21 1 C19.74703125 1.06058594 18.4940625 1.12117188 17.203125 1.18359375 C15.55207276 1.26802256 13.90103165 1.35266939 12.25 1.4375 C11.425 1.47681641 10.6 1.51613281 9.75 1.55664062 C8.95078125 1.59853516 8.1515625 1.64042969 7.328125 1.68359375 C6.5949707 1.72025146 5.86181641 1.75690918 5.10644531 1.79467773 C2.98822395 2.00114785 1.0480544 2.43132086 -1 3 C-0.67 2.01 -0.34 1.02 0 0 Z " fill="#F6E5FE" transform="translate(32,107)"/>
<path d="M0 0 C0.268125 0.5775 0.53625 1.155 0.8125 1.75 C2.01719859 4.0325868 3.40798115 5.9737942 5 8 C3.35 8 1.7 8 0 8 C0 8.66 0 9.32 0 10 C-0.99 9.67 -1.98 9.34 -3 9 C-3 8.01 -3 7.02 -3 6 C-2.01 6 -1.02 6 0 6 C0 4.02 0 2.04 0 0 Z " fill="#3C08E4" transform="translate(37,77)"/>
<path d="M0 0 C0.12375 0.598125 0.2475 1.19625 0.375 1.8125 C0.95475985 4.26231348 0.95475985 4.26231348 3 7 C6.08365871 7.2502157 6.08365871 7.2502157 9 7 C7 9 7 9 4 9.25 C1 9 1 9 -1 7 C-1.1875 3.9375 -1.1875 3.9375 -1 1 C-0.67 0.67 -0.34 0.34 0 0 Z " fill="#EFDEFF" transform="translate(40,140)"/>
<path d="M0 0 C0.66 0.33 1.32 0.66 2 1 C0.74194623 5.50802601 -0.90407165 8.4912812 -4 12 C-4.33 10.35 -4.66 8.7 -5 7 C-4.01 7 -3.02 7 -2 7 C-2 5.68 -2 4.36 -2 3 C-1.34 3 -0.68 3 0 3 C0 2.01 0 1.02 0 0 Z " fill="#3D0FD8" transform="translate(125,52)"/>
<path d="M0 0 C2 2 2 2 2.1953125 3.9453125 C2.13020833 5.96354167 2.06510417 7.98177083 2 10 C0.68 10.33 -0.64 10.66 -2 11 C-1.67 10.34 -1.34 9.68 -1 9 C-0.75212983 4.85496339 -0.75212983 4.85496339 -2 1 C-1.34 0.67 -0.68 0.34 0 0 Z " fill="#4C1FD9" transform="translate(71,106)"/>
<path d="M0 0 C4.875 0.875 4.875 0.875 6 2 C6.04092937 4.33297433 6.04241723 6.66705225 6 9 C5.01 9 4.02 9 3 9 C3.0928125 7.6078125 3.0928125 7.6078125 3.1875 6.1875 C3.30894264 3.01604897 3.30894264 3.01604897 1.5 1.125 C1.005 0.75375 0.51 0.3825 0 0 Z " fill="#4E23D9" transform="translate(165,106)"/>
<path d="M0 0 C3.96 1.98 7.92 3.96 12 6 C11.01 6.66 10.02 7.32 9 8 C9 7.34 9 6.68 9 6 C6.69 5.67 4.38 5.34 2 5 C2 4.01 2 3.02 2 2 C1.34 2 0.68 2 0 2 C0 1.34 0 0.68 0 0 Z " fill="#4113D7" transform="translate(56,93)"/>
<path d="M0 0 C0.66 0 1.32 0 2 0 C2 3.3 2 6.6 2 10 C-0.64 10.33 -3.28 10.66 -6 11 C-6.33 10.34 -6.66 9.68 -7 9 C-4.69 8.34 -2.38 7.68 0 7 C0 4.69 0 2.38 0 0 Z " fill="#4114D5" transform="translate(87,79)"/>
<path d="M0 0 C0.94875 0.04125 1.8975 0.0825 2.875 0.125 C2.875 0.455 2.875 0.785 2.875 1.125 C1.225 1.125 -0.425 1.125 -2.125 1.125 C-2.125 3.765 -2.125 6.405 -2.125 9.125 C-3.115 8.795 -4.105 8.465 -5.125 8.125 C-5.25 5.25 -5.25 5.25 -5.125 2.125 C-3.125 0.125 -3.125 0.125 0 0 Z " fill="#F2E0FF" transform="translate(44.125,74.875)"/>
<path d="M0 0 C3.7910119 1.44950455 7.3874638 3.15172566 11 5 C10.34 5.66 9.68 6.32 9 7 C6.375 6.625 6.375 6.625 4 6 C3.67 5.01 3.34 4.02 3 3 C2.01 2.67 1.02 2.34 0 2 C0 1.34 0 0.68 0 0 Z " fill="#4316DB" transform="translate(45,87)"/>
<path d="M0 0 C2.875 -0.125 2.875 -0.125 6 0 C8 2 8 2 8.125 4.625 C8.08375 5.40875 8.0425 6.1925 8 7 C7.01 7.495 7.01 7.495 6 8 C5.7525 7.030625 5.505 6.06125 5.25 5.0625 C4.63125 3.5465625 4.63125 3.5465625 4 2 C1.96756452 1.03122943 1.96756452 1.03122943 0 1 C0 0.67 0 0.34 0 0 Z " fill="#ECD7FF" transform="translate(153,75)"/>
<path d="M0 0 C2.875 -0.125 2.875 -0.125 6 0 C6.66 0.66 7.32 1.32 8 2 C6.02 2.99 6.02 2.99 4 4 C3.67 3.34 3.34 2.68 3 2 C1.35 2.66 -0.3 3.32 -2 4 C-1.34 2.68 -0.68 1.36 0 0 Z " fill="#F4E6FE" transform="translate(126,124)"/>
<path d="M0 0 C2.475 0.495 2.475 0.495 5 1 C4.39816251 3.02045442 3.72693904 5.02111039 3 7 C2.01 7.495 2.01 7.495 1 8 C0.67 5.36 0.34 2.72 0 0 Z " fill="#3F0EE1" transform="translate(114,66)"/>
<path d="M0 0 C0.33 0 0.66 0 1 0 C1.125 2.875 1.125 2.875 1 6 C-1 8 -1 8 -4.125 8.125 C-5.548125 8.063125 -5.548125 8.063125 -7 8 C-7.33 7.34 -7.66 6.68 -8 6 C-5.03 6.495 -5.03 6.495 -2 7 C-2 6.01 -2 5.02 -2 4 C-1.34 4 -0.68 4 0 4 C0 2.68 0 1.36 0 0 Z " fill="#E8D5FD" transform="translate(87,80)"/>
<path d="M0 0 C4.875 0.875 4.875 0.875 6 2 C6.04080783 3.99958364 6.04254356 6.00045254 6 8 C4 6 4 6 3 3 C2.34 3 1.68 3 1 3 C0.67 2.01 0.34 1.02 0 0 Z " fill="#F7E7FF" transform="translate(65,107)"/>
<path d="M0 0 C0.66 0.33 1.32 0.66 2 1 C-2.296875 5.00390625 -2.296875 5.00390625 -4 6 C-6.203125 5.65234375 -6.203125 5.65234375 -8 5 C-6.71475739 4.13619741 -5.42157581 3.28419631 -4.125 2.4375 C-3.04605469 1.72400391 -3.04605469 1.72400391 -1.9453125 0.99609375 C-1.30335938 0.66738281 -0.66140625 0.33867188 0 0 Z " fill="#EEDFFF" transform="translate(142,81)"/>
<path d="M0 0 C2.475 0.495 2.475 0.495 5 1 C5 2.65 5 4.3 5 6 C4.01 6.495 4.01 6.495 3 7 C2.01 4.69 1.02 2.38 0 0 Z " fill="#4111DE" transform="translate(79,65)"/>
<path d="M0 0 C0.226875 0.61875 0.45375 1.2375 0.6875 1.875 C2.37929835 4.61410209 3.99244161 5.05024472 7 6 C7 6.33 7 6.66 7 7 C5.0085944 7.38133299 3.00720923 7.71325582 1 8 C0 7 0 7 -0.0625 3.4375 C-0.041875 2.303125 -0.02125 1.16875 0 0 Z " fill="#592FE5" transform="translate(123,94)"/>
<path d="M0 0 C4.875 4.75 4.875 4.75 6 7 C2.62496331 5.8141763 0.35277269 4.72426311 -2 2 C-1.34 1.34 -0.68 0.68 0 0 Z " fill="#3C0ED7" transform="translate(50,73)"/>
</svg>
