<svg width="418" height="105" viewBox="0 0 418 105" fill="none" xmlns="http://www.w3.org/2000/svg">
<path d="M417.096 0H0V104.273H417.096V0Z" fill="#DE2922"/>
<path d="M378.774 36.177C372.899 36.177 368.514 39.239 364.832 42.739H364.48L363.602 37.229H353.081V80.622H365.972V51.314C368.779 48.6 370.794 47.113 374.04 47.113C377.722 47.113 379.388 49.039 379.388 55.337V80.622H392.281V53.677C392.28 42.826 388.243 36.177 378.774 36.177Z" fill="white"/>
<path d="M327.912 36.177C317.477 36.177 307.393 44.837 307.393 58.927C307.393 73.275 316.953 81.671 329.401 81.671C334.578 81.671 340.364 79.835 344.839 76.771L340.54 68.984C337.383 70.91 334.4 71.871 331.156 71.871C325.369 71.871 320.984 68.984 319.844 62.426H345.888C346.152 61.377 346.413 59.276 346.413 57.002C346.416 45.189 340.279 36.177 327.912 36.177ZM319.756 54.463C320.632 48.688 324.142 45.975 328.175 45.975C333.35 45.975 335.454 49.474 335.454 54.463H319.756Z" fill="white"/>
<path d="M292.276 54.639C287.804 52.977 283.769 51.924 283.769 49.127C283.769 46.939 285.348 45.714 288.681 45.714C291.748 45.714 294.73 47.114 297.886 49.388L303.674 41.688C299.906 38.89 294.994 36.178 288.329 36.178C278.244 36.178 271.668 41.688 271.668 49.739C271.668 56.913 277.894 60.5 283.155 62.51C287.625 64.262 292.011 65.574 292.011 68.459C292.011 70.736 290.346 72.135 286.488 72.135C282.804 72.135 279.213 70.561 275.263 67.586L269.475 75.631C273.859 79.219 280.437 81.67 286.135 81.67C297.799 81.67 304.025 75.549 304.025 67.674C304.026 59.711 297.8 56.651 292.276 54.639Z" fill="white"/>
<path d="M226.257 36.177C215.823 36.177 205.738 44.837 205.738 58.927C205.738 73.275 215.297 81.671 227.749 81.671C232.926 81.671 238.708 79.835 243.185 76.771L238.886 68.984C235.731 70.91 232.747 71.871 229.502 71.871C223.713 71.871 219.328 68.984 218.19 62.426H244.234C244.497 61.377 244.761 59.276 244.761 57.002C244.763 45.189 238.623 36.177 226.257 36.177ZM218.101 54.463C218.981 48.688 222.489 45.975 226.521 45.975C231.697 45.975 233.801 49.474 233.801 54.463H218.101Z" fill="white"/>
<path d="M186.111 36.177C180.234 36.177 175.852 39.239 172.17 42.739H171.818L170.941 37.229H160.419V80.622H173.31V51.314C176.116 48.6 178.132 47.113 181.376 47.113C185.062 47.113 186.726 49.039 186.726 55.337V80.622H199.616V53.677C199.616 42.826 195.582 36.177 186.111 36.177Z" fill="white"/>
<path d="M137.794 44.838H137.442L136.566 37.229H126.042V80.622H138.935V55.427C141.214 49.566 145.249 47.463 148.495 47.463C149.947 47.463 151.198 47.601 152.894 48.058L155.086 36.977C153.86 36.451 152.317 36.178 150.157 36.178C145.688 36.177 140.952 38.977 137.794 44.838Z" fill="white"/>
<path d="M251.179 80.485H264.072V19.293H257.625H251.179V80.485Z" fill="white"/>
<path d="M97.6181 36.177C84.4101 36.177 75.5591 45.4 75.5591 58.843C75.5591 72.111 84.8511 81.859 97.6181 81.859C111.002 81.859 119.674 72.632 119.674 58.843C119.674 45.838 110.385 36.177 97.6181 36.177ZM97.6181 71.381C91.4521 71.381 88.0861 66.746 88.0861 58.84C88.0861 51.113 91.5411 46.566 97.6181 46.566C103.693 46.566 107.148 50.935 107.148 58.844C107.147 66.66 103.78 71.381 97.6181 71.381Z" fill="white"/>
<path d="M52.269 30.997C57.659 30.997 62.594 33.085 66.334 37.726L74.3709 30.248C68.8689 22.889 61.5169 19.293 51.9389 19.293C36.0319 19.293 23.1479 32.689 23.1479 50.751C23.1479 68.426 35.9059 81.857 51.2829 81.857C60.8969 81.857 67.9899 78.482 73.8909 71.021L66.6379 63.267C63.5979 66.97 59.0929 70.152 52.2679 70.152C43.8239 70.152 36.3189 61.759 36.3189 50.575C36.3209 39.251 43.825 30.997 52.269 30.997Z" fill="white"/>
</svg>
