<?xml version="1.0" encoding="UTF-8"?>
<svg version="1.1" xmlns="http://www.w3.org/2000/svg" width="256" height="256">
<path d="M0 0 C84.48 0 168.96 0 256 0 C256 84.48 256 168.96 256 256 C171.52 256 87.04 256 0 256 C0 171.52 0 87.04 0 0 Z " fill="#FEFDFD" transform="translate(0,0)"/>
<path d="M0 0 C0 51.48 0 102.96 0 156 C-6.27 159.3 -12.54 162.6 -19 166 C-22.58989649 167.94811716 -26.17429776 169.90160359 -29.75 171.875 C-37.286007 176.01094112 -44.86792843 180.0442784 -52.5 184 C-60.74775307 188.27627992 -68.92646793 192.66024136 -77.0690918 197.13305664 C-86.97681048 202.56212425 -96.96252287 207.84337996 -106.94897461 213.12573242 C-108.26418998 213.82204654 -109.57937631 214.5184155 -110.89453125 215.21484375 C-111.83397835 215.71149788 -111.83397835 215.71149788 -112.79240417 216.21818542 C-117.03025099 218.46516542 -121.22006637 220.78420603 -125.36987305 223.18969727 C-127 224 -127 224 -129 224 C-129 193.64 -129 163.28 -129 132 C-126 136 -126 136 -124.74609375 137.89453125 C-118.87121581 146.50517325 -110.83193148 151.60617474 -100.8203125 154.33984375 C-86.04984848 156.8922041 -70.29477168 156.02359219 -57.640625 147.27734375 C-50.56735816 141.77030028 -46.18070866 134.92730938 -45 126 C-44.12130407 114.97636019 -45.08579561 105.41221637 -52.25 96.625 C-61.39008251 87.19688968 -73.7419284 84.36259231 -86.07250977 81.12475586 C-94.20537194 78.97631008 -100.61273518 76.97595875 -107 71.1875 C-108.55020136 67.79643453 -108.61883199 64.60869444 -108 61 C-105.54422706 55.99400131 -103.09676447 54.07800327 -98 52 C-95.26577311 51.66313426 -92.84954882 51.47517569 -90.125 51.5 C-89.41899658 51.50427002 -88.71299316 51.50854004 -87.9855957 51.51293945 C-82.14143243 51.70389872 -78.15227088 52.87060665 -74 57 C-69.8255168 61.6962936 -71 63.89901021 -71 71 C-63.08 71 -55.16 71 -47 71 C-48.12838316 59.6135881 -49.2275194 51.15217141 -57.9375 43.125 C-61.12217479 40.52045572 -64.22013676 38.60644188 -68 37 C-65.49262684 34.15763583 -62.72379841 32.61598071 -59.390625 30.84765625 C-58.25439697 30.24179687 -57.11816895 29.6359375 -55.94750977 29.01171875 C-54.71509129 28.36181837 -53.48258604 27.71208252 -52.25 27.0625 C-50.98538715 26.39101763 -49.7209849 25.71913848 -48.45678711 25.046875 C-39.56874392 20.32757128 -30.65221042 15.66206565 -21.72119141 11.0246582 C-15.48709363 7.78697098 -9.29233479 4.48665876 -3.1328125 1.109375 C-1 0 -1 0 0 0 Z " fill="#E90129" transform="translate(183,16)"/>
<path d="M0 0 C3 4 3 4 4.75 6.875 C13.34796574 18.81661909 27.02068573 21.53625534 40.63867188 24.68164062 C47.82991687 26.41712123 54.93828646 28.65994887 60.0625 34.25 C61.83761361 39.45699992 61.63544832 44.12895773 59.875 49.3125 C56.85546952 53.64049369 53.14243563 56.00498985 48 57 C39.52543949 57.86982293 33.08215097 56.88239196 26 52 C22.61187512 48.69657824 21.12224872 45.58251562 20 41 C20 39.02 20 37.04 20 35 C13.4 35 6.8 35 0 35 C0 23.45 0 11.9 0 0 Z " fill="#E7042B" transform="translate(54,94)"/>
<path d="M0 0 C4.43041256 2.13609177 7.16159481 4.40398702 9 9 C9.715328 13.76885333 9.48847963 17.05793214 7.25 21.375 C3.28577024 25.99993472 0.34739004 27.80759098 -5.8125 28.3125 C-10.19620197 28.24803379 -12.64568303 26.88627274 -16 24 C-19.55182811 20.09298908 -19.61271062 15.81063894 -19.49609375 10.734375 C-18.7051922 6.37507512 -16.35733934 3.76589096 -13 1 C-9.05100663 -0.97449669 -4.30409896 -0.43770498 0 0 Z " fill="#FDE0E6" transform="translate(213,16)"/>
<path d="M0 0 C0 51.48 0 102.96 0 156 C-13 163 -13 163 -15 163 C-15 162.34 -15 161.68 -15 161 C-14.01 161 -13.02 161 -12 161 C-11.896875 160.38125 -11.79375 159.7625 -11.6875 159.125 C-11 157 -11 157 -8 155 C-5.69 155 -3.38 155 -1 155 C-1 104.51 -1 54.02 -1 2 C-1.66 1.67 -2.32 1.34 -3 1 C-1 0 -1 0 0 0 Z " fill="#BB1431" transform="translate(183,16)"/>
<path d="M0 0 C4.43041256 2.13609177 7.16159481 4.40398702 9 9 C9.715328 13.76885333 9.48847963 17.05793214 7.25 21.375 C3.28577024 25.99993472 0.34739004 27.80759098 -5.8125 28.3125 C-10.19620197 28.24803379 -12.64568303 26.88627274 -16 24 C-19.55182811 20.09298908 -19.61271062 15.81063894 -19.49609375 10.734375 C-18.7051922 6.37507512 -16.35733934 3.76589096 -13 1 C-9.05100663 -0.97449669 -4.30409896 -0.43770498 0 0 Z M-16 7 C-17.72589785 10.45179569 -17.36043965 14.21866039 -17 18 C-15.27158115 22.18459301 -13.15177657 24.20718739 -9 26 C-4.73955513 26.54223844 -2.57903994 26.30065535 1.25 24.3125 C5.24979694 20.94903439 6.81364901 18.73927592 7.375 13.5 C6.86021082 8.69530095 5.53094346 6.30580471 1.875 3.1875 C-5.4588033 0.15832037 -10.631193 1.36275265 -16 7 Z " fill="#C42440" transform="translate(213,16)"/>
<path d="M0 0 C0.70600342 0.00427002 1.41200684 0.00854004 2.1394043 0.01293945 C7.97792576 0.20371437 11.98025483 1.36667286 16.125 5.5 C19.72213727 9.65918997 19.39242803 13.24058199 19.125 18.5 C18.795 18.5 18.465 18.5 18.125 18.5 C18.125 16.52 18.125 14.54 18.125 12.5 C16.805 12.17 15.485 11.84 14.125 11.5 C14.785 10.18 15.445 8.86 16.125 7.5 C15.3825 7.4175 14.64 7.335 13.875 7.25 C11.125 6.5 11.125 6.5 9.35546875 4.48046875 C6.38242873 1.84065913 4.61113362 1.99446011 0.6875 2.0625 C-0.98119141 2.06443359 -0.98119141 2.06443359 -2.68359375 2.06640625 C-6.14575682 2.53678581 -7.97760631 3.62638522 -10.875 5.5 C-11.865 5.5 -12.855 5.5 -13.875 5.5 C-13.71 6.4075 -13.545 7.315 -13.375 8.25 C-12.74593534 12.33892029 -12.875 16.37327141 -12.875 20.5 C-11.885 20.83 -10.895 21.16 -9.875 21.5 C-9.875 22.16 -9.875 22.82 -9.875 23.5 C-8.823125 23.66435547 -8.823125 23.66435547 -7.75 23.83203125 C6.90640294 26.28140294 6.90640294 26.28140294 11.125 30.5 C0.87697891 29.71169069 -9.13189533 26.86023103 -16.75 19.75 C-18.44832688 16.35334624 -18.50393527 13.16761128 -17.875 9.5 C-14.08739632 1.77911557 -8.22652457 -0.07495473 0 0 Z " fill="#D01D3E" transform="translate(92.875,67.5)"/>
<path d="M0 0 C8.49609375 -0.09765625 8.49609375 -0.09765625 11 0 C12 1 12 1 12.1875 3.875 C12 7 12 7 10 10 C10.495 10.61875 10.99 11.2375 11.5 11.875 C13 14 13 14 13 16 C12.01 16 11.02 16 10 16 C7 11.77777778 7 11.77777778 7 9 C5.35 9 3.7 9 2 9 C2 11.31 2 13.62 2 16 C1.34 16 0.68 16 0 16 C0 10.72 0 5.44 0 0 Z " fill="#C4213D" transform="translate(202,22)"/>
<path d="M0 0 C1.98828125 0.40625 1.98828125 0.40625 3.98828125 2.40625 C0.68828125 2.40625 -2.61171875 2.40625 -6.01171875 2.40625 C-6.01171875 8.01625 -6.01171875 13.62625 -6.01171875 19.40625 C-5.02171875 19.40625 -4.03171875 19.40625 -3.01171875 19.40625 C-2.68171875 18.08625 -2.35171875 16.76625 -2.01171875 15.40625 C-0.96721964 18.53974732 -1.0774823 19.39593256 -2.01171875 22.40625 C-6.32738042 21.92673204 -8.21371285 20.70389982 -11.01171875 17.40625 C-12.76315077 13.90338595 -12.55590442 10.22835409 -12.01171875 6.40625 C-9.63214984 0.68367696 -5.72795703 -0.23104364 0 0 Z " fill="#FEEEF2" transform="translate(208.01171875,18.59375)"/>
<path d="M0 0 C2.48724903 3.31633204 4.23109915 6.29373156 6 10 C5.34 10 4.68 10 4 10 C4 9.34 4 8.68 4 8 C3.01 8 2.02 8 1 8 C1.33 34.07 1.66 60.14 2 87 C4.31 87 6.62 87 9 87 C6.19350987 90.43015461 4.79707049 90.4009765 0 92 C0 61.64 0 31.28 0 0 Z " fill="#C41635" transform="translate(54,148)"/>
<path d="M0 0 C2.71212723 3.61616964 4.81005582 7.07320353 7 11 C5.68 11 4.36 11 3 11 C3 9.68 3 8.36 3 7 C2.34 7 1.68 7 1 7 C1 15.58 1 24.16 1 33 C7.20792914 32.96041973 7.20792914 32.96041973 13.41577148 32.90991211 C14.18477783 32.90741455 14.95378418 32.90491699 15.74609375 32.90234375 C16.53685303 32.89710693 17.3276123 32.89187012 18.14233398 32.88647461 C20 33 20 33 21 34 C21.04080783 35.99958364 21.04254356 38.00045254 21 40 C22.485 40.495 22.485 40.495 24 41 C24.33 43.97 24.66 46.94 25 50 C21.8180056 46.8180056 21.08730329 45.26557446 20 41 C20 39.02 20 37.04 20 35 C13.4 35 6.8 35 0 35 C0 23.45 0 11.9 0 0 Z " fill="#C91535" transform="translate(54,94)"/>
<path d="M0 0 C0.33 0.99 0.66 1.98 1 3 C1.99 3.33 2.98 3.66 4 4 C3.56554685 15.50551789 2.04291284 23.99793737 -4 34 C-4.66 33.67 -5.32 33.34 -6 33 C-5.0234375 31.4375 -4.046875 29.875 -3.0703125 28.3125 C-0.05556806 21.79889158 0.27412777 15.54341913 0.125 8.5 C0.11597656 7.67757812 0.10695312 6.85515625 0.09765625 6.0078125 C0.07436865 4.00507917 0.03850959 2.00249846 0 0 Z " fill="#D11738" transform="translate(138,124)"/>
<path d="M0 0 C9.80645161 -0.57685009 9.80645161 -0.57685009 14 3 C17.18338925 6.95179356 17.29321709 10.01530948 17 15 C16.67 15 16.34 15 16 15 C15.71125 13.865625 15.4225 12.73125 15.125 11.5625 C14.75375 10.386875 14.3825 9.21125 14 8 C13.34 7.67 12.68 7.34 12 7 C12 8.65 12 10.3 12 12 C11.34 11.67 10.68 11.34 10 11 C10 9.02 10 7.04 10 5 C6.37 4.67 2.74 4.34 -1 4 C-1 3.67 -1 3.34 -1 3 C1.64 2.67 4.28 2.34 7 2 C4.69 1.67 2.38 1.34 0 1 C0 0.67 0 0.34 0 0 Z " fill="#FCCED9" transform="translate(203,18)"/>
<path d="M0 0 C3 1 3 1 4 3 C4.04022391 5.3329866 4.04320247 7.66706666 4 10 C2.35 10.33 0.7 10.66 -1 11 C-1.99 9.35 -2.98 7.7 -4 6 C-2.68 5.67 -1.36 5.34 0 5 C0 3.35 0 1.7 0 0 Z " fill="#FEF0F5" transform="translate(215,25)"/>
<path d="M0 0 C0.66 0.33 1.32 0.66 2 1 C2.45760607 6.7200759 1.63848132 9.55296727 -2 14 C-5.50168029 17.6267403 -9.17276917 17.59773076 -14 18 C-13 16 -13 16 -11.29296875 15.359375 C-10.59816406 15.15828125 -9.90335938 14.9571875 -9.1875 14.75 C-4.79084463 13.17413786 -3.06149256 11.28790452 -1 7 C-0.20317197 3.26774656 -0.20317197 3.26774656 0 0 Z " fill="#BF2241" transform="translate(220,26)"/>
<path d="M0 0 C6.93 0 13.86 0 21 0 C21 1.98 21 3.96 21 6 C21.99 6.33 22.98 6.66 24 7 C24.33 9.97 24.66 12.94 25 16 C21.8180056 12.8180056 21.08730329 11.26557446 20 7 C20 5.02 20 3.04 20 1 C13.4 1 6.8 1 0 1 C0 0.67 0 0.34 0 0 Z " fill="#CF2F4E" transform="translate(54,128)"/>
<path d="M0 0 C0.99 0.33 1.98 0.66 3 1 C4.42543615 5.27630845 3.95595724 8.6981924 3 13 C2.01 12.67 1.02 12.34 0 12 C-1.12256131 9.75487738 -1.13413762 8.48543351 -1.125 6 C-1.12886719 4.948125 -1.12886719 4.948125 -1.1328125 3.875 C-1 2 -1 2 0 0 Z " fill="#DA1539" transform="translate(76,75)"/>
<path d="M0 0 C1.32 0 2.64 0 4 0 C4 0.66 4 1.32 4 2 C7.91063224 3.47047336 7.91063224 3.47047336 12 4 C12.99 7.3 13.98 10.6 15 14 C14.34 14 13.68 14 13 14 C12.08664911 12.57923195 11.17556779 11.15694191 10.27734375 9.7265625 C8.38477535 7.16841194 6.04499495 5.29418804 3.5859375 3.296875 C2 2 2 2 0 0 Z " fill="#D62143" transform="translate(119,54)"/>
<path d="M0 0 C2.31 0 4.62 0 7 0 C7.5625 1.9375 7.5625 1.9375 8 4 C7 5 7 5 3.4375 5.0625 C2.303125 5.041875 1.16875 5.02125 0 5 C0 3.35 0 1.7 0 0 Z " fill="#FED4E4" transform="translate(204,24)"/>
<path d="M0 0 C2.625 0.375 2.625 0.375 5 1 C5 1.66 5 2.32 5 3 C3.54462432 3.83848804 2.08559627 4.67063934 0.625 5.5 C-0.59316406 6.19609375 -0.59316406 6.19609375 -1.8359375 6.90625 C-4 8 -4 8 -6 8 C-6 7.34 -6 6.68 -6 6 C-5.01 6 -4.02 6 -3 6 C-2.87625 5.38125 -2.7525 4.7625 -2.625 4.125 C-2 2 -2 2 0 0 Z " fill="#D71033" transform="translate(174,171)"/>
<path d="M0 0 C2.64525803 0.95523207 4.81123085 1.85699307 7.0625 3.5625 C9.07687729 5.05703799 10.55493989 5.56338212 13 6 C13.33 8.31 13.66 10.62 14 13 C13.360625 12.319375 12.72125 11.63875 12.0625 10.9375 C8.91134117 7.75901898 5.36696837 5.1350823 1.79296875 2.453125 C1.20128906 1.97359375 0.60960938 1.4940625 0 1 C0 0.67 0 0.34 0 0 Z " fill="#D2183A" transform="translate(121,104)"/>
<path d="M0 0 C-1.78881736 1.00508801 -3.58114696 2.00392736 -5.375 3 C-6.37273437 3.556875 -7.37046875 4.11375 -8.3984375 4.6875 C-11 6 -11 6 -13 6 C-13 5.01 -13 4.02 -13 3 C-11.68 3 -10.36 3 -9 3 C-8.67 2.01 -8.34 1.02 -8 0 C-4.71303767 -0.79953138 -3.28976808 -1.09658936 0 0 Z " fill="#D5173C" transform="translate(95,219)"/>
<path d="M0 0 C2.31 0.33 4.62 0.66 7 1 C4.59327602 3.40672398 2.88621451 3.79132175 -0.375 4.6875 C-1.33148438 4.95949219 -2.28796875 5.23148438 -3.2734375 5.51171875 C-5.97064661 5.9947433 -7.44972144 5.9004538 -10 5 C-9.36191406 4.80664062 -8.72382812 4.61328125 -8.06640625 4.4140625 C-7.24011719 4.15367187 -6.41382812 3.89328125 -5.5625 3.625 C-4.32693359 3.24214844 -4.32693359 3.24214844 -3.06640625 2.8515625 C-0.82201984 2.19117773 -0.82201984 2.19117773 0 0 Z " fill="#FAD9E0" transform="translate(112,166)"/>
<path d="M0 0 C0.33 0.66 0.66 1.32 1 2 C1.66 2 2.32 2 3 2 C3.02708567 3.60407328 3.04643483 5.2082785 3.0625 6.8125 C3.07410156 7.70582031 3.08570312 8.59914062 3.09765625 9.51953125 C3 12 3 12 2 15 C1.34 15 0.68 15 0 15 C0.01160156 14.24074219 0.02320312 13.48148438 0.03515625 12.69921875 C0.04417969 11.70535156 0.05320312 10.71148437 0.0625 9.6875 C0.07990234 8.20830078 0.07990234 8.20830078 0.09765625 6.69921875 C0.12329862 3.90036151 0.12329862 3.90036151 -1 1 C-0.67 0.67 -0.34 0.34 0 0 Z " fill="#FDD8E4" transform="translate(114,127)"/>
<path d="M0 0 C0.33 0.66 0.66 1.32 1 2 C0.34 2 -0.32 2 -1 2 C-1 2.66 -1 3.32 -1 4 C-4 6 -4 6 -8 6 C-8 6.99 -8 7.98 -8 9 C-9.32 8.34 -10.64 7.68 -12 7 C-8.04 4.69 -4.08 2.38 0 0 Z " fill="#CE2847" transform="translate(127,45)"/>
<path d="M0 0 C0.66 0.33 1.32 0.66 2 1 C2 1.66 2 2.32 2 3 C2.763125 3.28875 3.52625 3.5775 4.3125 3.875 C7 5 7 5 10 7 C8.375 7.75 8.375 7.75 6 8 C0.4109589 4.82191781 0.4109589 4.82191781 -1 2 C-0.67 1.34 -0.34 0.68 0 0 Z " fill="#C4314E" transform="translate(197,36)"/>
<path d="M0 0 C2.25 -0.3125 2.25 -0.3125 5 0 C7.75615725 2.75615725 9.42444124 5.11497836 10 9 C9.01 8.67 8.02 8.34 7 8 C6.71125 7.195625 6.4225 6.39125 6.125 5.5625 C5.22055781 2.76071559 5.22055781 2.76071559 2.375 1.6875 C1.59125 1.460625 0.8075 1.23375 0 1 C0 0.67 0 0.34 0 0 Z " fill="#C43550" transform="translate(212,18)"/>
<path d="M0 0 C2.64 0 5.28 0 8 0 C8 0.66 8 1.32 8 2 C9.32 2.33 10.64 2.66 12 3 C8.69564916 4.12377697 6.9493138 3.89554742 3.75 2.5625 C3.04359375 2.27503906 2.3371875 1.98757812 1.609375 1.69140625 C1.07828125 1.46324219 0.5471875 1.23507813 0 1 C0 0.67 0 0.34 0 0 Z " fill="#D51C3F" transform="translate(108,99)"/>
<path d="M0 0 C0.66 0.33 1.32 0.66 2 1 C2.1875 4.3125 2.1875 4.3125 2 8 C1.01 8.99 0.02 9.98 -1 11 C-0.67 7.37 -0.34 3.74 0 0 Z " fill="#C11C38" transform="translate(220,26)"/>
<path d="M0 0 C0 0.99 0 1.98 0 3 C-1.32 3 -2.64 3 -4 3 C-4 3.66 -4 4.32 -4 5 C-4.99 5.33 -5.98 5.66 -7 6 C-7.66 5.34 -8.32 4.68 -9 4 C-2.25 0 -2.25 0 0 0 Z " fill="#FDDFE4" transform="translate(67,234)"/>
<path d="M0 0 C2.97 0.99 5.94 1.98 9 3 C9 3.33 9 3.66 9 4 C6.69 4.33 4.38 4.66 2 5 C2 4.01 2 3.02 2 2 C1.34 2 0.68 2 0 2 C0 1.34 0 0.68 0 0 Z " fill="#D31538" transform="translate(68,111)"/>
<path d="M0 0 C2.31 0 4.62 0 7 0 C4.60490662 2.89932357 2.68754757 3.50168276 -1 4 C-0.67 2.68 -0.34 1.36 0 0 Z " fill="#D41739" transform="translate(56,235)"/>
<path d="M0 0 C0.66 0.33 1.32 0.66 2 1 C0.35 2.65 -1.3 4.3 -3 6 C-3 5.34 -3 4.68 -3 4 C-4.65 4.33 -6.3 4.66 -8 5 C-5.45378681 2.99940392 -3.01962385 1.20784954 0 0 Z " fill="#FEDAE2" transform="translate(101,215)"/>
<path d="M0 0 C2.64 1.98 5.28 3.96 8 6 C5 7 5 7 2 6 C0.8125 2.9375 0.8125 2.9375 0 0 Z " fill="#D21637" transform="translate(60,158)"/>
<path d="M0 0 C-3.96 1.98 -3.96 1.98 -8 4 C-8 2.68 -8 1.36 -8 0 C-4.63458162 -1.08174162 -3.70152678 -0.92538169 0 0 Z " fill="#D3213F" transform="translate(168,180)"/>
<path d="M0 0 C0.33 0 0.66 0 1 0 C1.06058594 0.60328125 1.12117187 1.2065625 1.18359375 1.828125 C1.26738281 2.62734375 1.35117188 3.4265625 1.4375 4.25 C1.51871094 5.03890625 1.59992188 5.8278125 1.68359375 6.640625 C1.97634993 8.82364639 2.42064419 10.8773182 3 13 C2.01 12.67 1.02 12.34 0 12 C0 8.04 0 4.08 0 0 Z " fill="#F6BCC9" transform="translate(193,26)"/>
<path d="M0 0 C0 0.66 0 1.32 0 2 C-2.30368736 3.06652192 -4.64018187 4.06421005 -7 5 C-7.66 4.67 -8.32 4.34 -9 4 C-2.25 0 -2.25 0 0 0 Z " fill="#FDD5DB" transform="translate(140,195)"/>
<path d="M0 0 C-0.763125 0.4125 -1.52625 0.825 -2.3125 1.25 C-4.9366642 2.95875809 -6.30321976 4.41017753 -8 7 C-7.75 4.125 -7.75 4.125 -7 1 C-4.1587258 -1.17831022 -3.46754708 -1.15584903 0 0 Z " fill="#FED8DF" transform="translate(83,70)"/>
<path d="M0 0 C1.98 0 3.96 0 6 0 C5.67 0.99 5.34 1.98 5 3 C3.35 3 1.7 3 0 3 C0 2.01 0 1.02 0 0 Z " fill="#FDF4F8" transform="translate(205,24)"/>
</svg>
